# xmcd
#
# Track frame offsets: 
#        150
#        12885
#        24368
#        39840
#        53880
#        66488
#        81803
#        100623
#        118153
#
# Disc length: 1742 seconds
#
# Revision: 4
# Processed by: cddbd v1.5.2PL0 Copyright (c) Steve Scherf et al.
# Submitted via: ExactAudioCopy v1.0b1
#
DISCID=6806cc09
DTITLE=Various Artist - Country Rock Vol. 1 Freewheelin´
DYEAR=1993
DGENRE=Country
TTITLE0=Loggins And Messina - Your Mama Don't Dance
TTITLE1=Willie Nelson - On The Road Again
TTITLE2=Desert Rose Band - One Step Foward
TTITLE3=Nitty Gritty Dirt Band - Baby's Got A Hold On Me
TTITLE4=Emmylou Harris - I'm Movin' On
TTITLE5=Poco - You'd Better Think Twice
TTITLE6=Pure Prairie League - Two Lane Highway
TTITLE7=Southern Pacific - Think About You
TTITLE8=New Riders Of The Purple Sage - Panama Red
EXTD=YEAR: 1993
EXTT0=
EXTT1=
EXTT2=
EXTT3=
EXTT4=
EXTT5=
EXTT6=
EXTT7=
EXTT8=
PLAYORDER=
